<?xml version="1.0" encoding="UTF-8" standalone="no"?>
<svg xmlns="http://www.w3.org/2000/svg" width="60.000mm" height="8.764mm" viewBox="0 0 2225 325" version="1.1">
  <title>Zodiac Dynamics KiCad Silkscreen Logo</title>
  <desc>Monochrome traced vector logo for PCB silkscreen. Filled black path, no raster image.</desc>
  <rect width="100%" height="100%" fill="none"/>
  <path d="M 732 41 L 730 47 L 730 164 L 732 171 L 739 182 L 743 186 L 755 194 L 764 197 L 996 197 L 1005 194 L 1015 188 L 1022 181 L 1028 171 L 1030 164 L 1030 50 L 1026 37 L 1022 31 L 1015 24 L 1005 18 L 992 14 L 769 14 L 758 17 L 748 22 L 737 32 Z
M 8 8 L 54 35 L 580 35 L 581 36 L 583 35 L 584 36 L 583 38 L 467 96 L 465 98 L 405 128 L 390 137 L 369 147 L 367 149 L 274 197 L 720 197 L 677 170 L 669 167 L 443 167 L 442 166 L 456 157 L 463 154 L 484 141 L 495 136 L 500 132 L 516 124 L 532 114 L 550 105 L 570 93 L 583 87 L 632 59 L 645 53 L 647 51 L 674 37 L 683 31 L 694 26 L 725 8 Z
M 1069 14 L 1089 29 L 1115 51 L 1333 51 L 1336 52 L 1342 59 L 1342 151 L 1335 158 L 1137 158 L 1136 157 L 1136 78 L 1094 54 L 1088 52 L 1088 197 L 1354 197 L 1368 192 L 1375 187 L 1384 177 L 1389 165 L 1389 159 L 1390 158 L 1390 54 L 1389 53 L 1389 47 L 1384 35 L 1371 22 L 1361 17 L 1358 17 L 1350 14 Z
M 1549 197 L 1610 197 L 1721 53 L 1724 55 L 1731 65 L 1740 75 L 1784 133 L 1783 134 L 1680 134 L 1654 167 L 1809 167 L 1815 173 L 1834 197 L 1896 197 L 1752 14 L 1690 14 L 1635 87 L 1597 134 Z
M 1934 35 L 1931 41 L 1928 52 L 1928 161 L 1930 169 L 1934 177 L 1944 188 L 1950 192 L 1963 197 L 2215 197 L 2176 158 L 1982 158 L 1980 157 L 1976 152 L 1976 57 L 1980 53 L 1984 51 L 2177 51 L 2216 14 L 1967 14 L 1954 18 L 1947 22 Z
M 777 57 L 781 53 L 785 51 L 974 51 L 977 52 L 983 59 L 983 151 L 976 158 L 783 158 L 777 153 L 777 146 L 776 145 L 776 60 Z
M 1498 13 L 1491 15 L 1450 33 L 1450 197 L 1498 197 Z
M 1645 249 L 1642 256 L 1642 272 L 1644 277 L 1649 282 L 1659 286 L 1719 286 L 1720 285 L 1725 285 L 1729 286 L 1731 288 L 1731 299 L 1729 301 L 1643 301 L 1642 302 L 1642 315 L 1643 316 L 1732 316 L 1740 313 L 1746 307 L 1747 305 L 1747 283 L 1745 279 L 1738 273 L 1730 272 L 1729 271 L 1661 271 L 1659 269 L 1659 259 L 1661 257 L 1665 257 L 1666 256 L 1707 256 L 1708 257 L 1711 256 L 1746 256 L 1747 254 L 1747 242 L 1657 242 L 1651 244 Z
M 1251 242 L 1251 315 L 1267 315 L 1267 266 L 1268 265 L 1273 270 L 1300 306 L 1309 316 L 1310 315 L 1322 316 L 1355 275 L 1361 266 L 1363 265 L 1364 266 L 1364 315 L 1380 316 L 1380 242 L 1361 242 L 1316 299 L 1311 295 L 1305 286 L 1296 276 L 1270 242 Z
M 625 242 L 625 247 L 635 256 L 638 257 L 660 257 L 661 256 L 701 257 L 702 256 L 710 256 L 711 257 L 715 257 L 717 259 L 717 298 L 714 301 L 643 301 L 642 300 L 642 267 L 626 257 L 626 314 L 625 315 L 626 316 L 627 315 L 630 316 L 644 316 L 645 315 L 653 315 L 654 316 L 721 315 L 726 313 L 731 308 L 733 304 L 733 254 L 728 246 L 719 242 Z
M 933 242 L 933 315 L 934 316 L 935 315 L 936 316 L 950 315 L 950 261 L 951 260 L 1021 315 L 1025 316 L 1027 315 L 1041 315 L 1041 242 L 1025 242 L 1025 296 L 1024 297 L 984 267 L 953 242 Z
M 1495 255 L 1495 303 L 1497 307 L 1503 313 L 1512 316 L 1516 316 L 1517 315 L 1541 315 L 1542 316 L 1565 316 L 1566 315 L 1589 316 L 1590 315 L 1598 315 L 1585 301 L 1515 301 L 1512 298 L 1512 259 L 1514 257 L 1580 257 L 1581 256 L 1586 256 L 1593 249 L 1598 242 L 1510 242 L 1500 247 Z
M 1084 315 L 1088 316 L 1104 315 L 1146 257 L 1168 287 L 1169 290 L 1168 291 L 1167 290 L 1166 291 L 1130 291 L 1121 303 L 1179 303 L 1188 315 L 1209 315 L 1180 276 L 1157 242 L 1135 242 L 1116 271 Z
M 773 242 L 823 287 L 823 315 L 838 315 L 839 316 L 840 315 L 840 287 L 891 243 L 891 242 L 868 242 L 832 274 L 796 242 Z
M 1429 242 L 1429 315 L 1443 315 L 1444 316 L 1445 315 L 1445 242 Z" fill="#000000" fill-rule="evenodd"/>
</svg>
